#!OML:ASF H:\Punching\Project 1\Capture day 1\Session 1\female.ASF
:FULLY-SPECIFIED
:DEGREES
2345
root -1.42758 15.406 9.62687 11.4596 -16.8208 -0.555809
lowerback 0.431257 -2.14928 1.59357
upperback -5.72544 -2.84404 0.0717537
thorax -6.25512 -1.50312 -0.646062
lowerneck -7.56011 8.67634 14.3591
upperneck 25.0336 11.7808 -8.30813
head 10.6471 5.90944 -3.92963
rclavicle 8.31102e-014 7.95139e-015
rhumerus -1.46933 20.6148 -64.5651
rradius 120.484
rwrist -4.06094
rhand -27.8832 0.451972
rfingers 7.12502
rthumb -1.27315 -29.524
lclavicle 8.31102e-014 7.95139e-015
lhumerus -10.4714 -16.7357 59.8777
lradius 90.8303
lwrist -8.23808
lhand -21.5385 6.98049
lfingers 7.12502
lthumb 4.85444 36.9049
rfemur -5.7562 6.96192 12.0784
rtibia 20.6764
rfoot -21.8342 -14.1099
rtoes -13.8407
lfemur -31.3912 -4.14166 -3.18467
ltibia 21.5403
lfoot 1.43999 18.4145
ltoes 4.25077
2346
root -1.51486 15.4286 9.53086 11.527 -16.3707 -0.566895
lowerback 0.356295 -2.11756 1.80706
upperback -5.70654 -2.79971 -0.0303824
thorax -6.20752 -1.49474 -0.877156
lowerneck -7.71722 8.59881 14.213
upperneck 25.0385 11.6613 -8.24734
head 10.6483 5.84379 -3.89585
rclavicle 1.43991e-014 -1.15295e-014
rhumerus -2.94807 20.01 -64.3812
rradius 119.91
rwrist -4.75666
rhand -27.4554 0.328624
rfingers 7.12502
rthumb -0.859924 -29.6494
lclavicle 1.43991e-014 -1.15295e-014
lhumerus -11.9476 -16.3201 59.2771
lradius 90.9882
lwrist -8.09847
lhand -21.4207 7.08135
lfingers 7.12502
lthumb 4.96817 37.0031
rfemur -6.02424 6.79388 12.5802
rtibia 20.7539
rfoot -21.7675 -14.1514
rtoes -13.3792
lfemur -31.029 -5.40381 -2.20571
ltibia 19.8792
lfoot 2.28272 20.0156
ltoes 5.73401
2347
root -1.60086 15.4509 9.43687 11.6189 -15.8856 -0.587983
lowerback 0.253984 -2.09144 2.02971
upperback -5.69782 -2.76291 -0.121058
thorax -6.15488 -1.49021 -1.1018
lowerneck -7.86799 8.51245 14.0533
upperneck 25.0477 11.5295 -8.17244
head 10.6467 5.77295 -3.85691
rclavicle 1.87883e-014 -9.93923e-015
rhumerus -4.46569 19.4202 -64.234
rradius 119.256
rwrist -5.4233
rhand -27.0347 0.160896
rfingers 7.12502
rthumb -0.453588 -29.8184
lclavicle 1.87883e-014 -9.93923e-015
lhumerus -13.4296 -15.9418 58.7551
lradius 91.0673
lwrist -8.09361
lhand -21.3209 7.21808
lfingers 7.12502
lthumb 5.06452 37.1376
rfemur -6.29369 6.63289 13.0982
rtibia 20.8123
rfoot -21.6951 -14.2519
rtoes -12.8461
lfemur -30.7527 -6.89964 -1.10355
ltibia 18.2889
lfoot 2.87696 21.9486
ltoes 7.45766
2348
root -1.68539 15.4721 9.34522 11.7207 -15.3767 -0.608515
lowerback 0.137298 -2.07376 2.23838
upperback -5.69642 -2.73807 -0.199146
thorax -6.10067 -1.49047 -1.30523
lowerneck -8.01643 8.42106 13.8917
upperneck 25.0671 11.3906 -8.09182
head 10.6474 5.69948 -3.8168
rclavicle 3.37225e-015 1.86858e-014
rhumerus -6.00727 18.8554 -64.1192
rradius 118.522
rwrist -6.08137
rhand -26.6032 -0.0767095
rfingers 7.12502
rthumb -0.0368336 -30.0564
lclavicle 3.37225e-015 1.86858e-014
lhumerus -14.9199 -15.566 58.3066
lradius 91.0781
lwrist -8.16934
lhand -21.1961 7.33583
lfingers 7.12502
lthumb 5.18504 37.2524
rfemur -6.56379 6.49459 13.6184
rtibia 20.8714
rfoot -21.6213 -14.4173
rtoes -12.2646
lfemur -30.5695 -8.66842 0.128852
ltibia 16.8201
lfoot 3.10571 24.1974
ltoes 9.54158
2349
root -1.76787 15.4916 9.25691 11.8207 -14.8463 -0.628222
lowerback 0.00619659 -2.06109 2.44355
upperback -5.70348 -2.72035 -0.26652
thorax -6.04669 -1.49379 -1.49549
lowerneck -8.14136 8.32331 13.7194
upperneck 25.0964 11.2449 -7.9967
head 10.6451 5.62415 -3.7717
rclavicle -3.99976e-014 -2.46493e-014
rhumerus -7.57374 18.3236 -64.0331
rradius 117.697
rwrist -6.72212
rhand -26.2326 -0.332886
rfingers 7.12502
rthumb 0.321062 -30.3124
lclavicle -3.99976e-014 -2.46493e-014
lhumerus -16.4219 -15.205 57.9445
lradius 91.0302
lwrist -8.27647
lhand -21.0455 7.41327
lfingers 7.12502
lthumb 5.33039 37.3262
rfemur -6.82755 6.39067 14.1365
rtibia 20.9478
rfoot -21.5545 -14.6504
rtoes -11.6365
lfemur -30.4963 -10.7144 1.48668
ltibia 15.5386
lfoot 2.83534 26.6597
ltoes 11.9259
2350
root -1.84797 15.5094 9.17187 11.9083 -14.3095 -0.637954
lowerback -0.125089 -2.04444 2.62995
upperback -5.72547 -2.69794 -0.324889
thorax -6.00674 -1.49378 -1.66584
lowerneck -8.21843 8.20674 13.5397
upperneck 25.132 11.0798 -7.89812
head 10.633 5.54106 -3.72891
rclavicle -3.75201e-014 -3.18055e-015
rhumerus -9.18656 17.8254 -63.9639
rradius 116.797
rwrist -7.39149
rhand -25.9014 -0.605505
rfingers 7.12502
rthumb 0.640943 -30.5843
lclavicle -3.75201e-014 -3.18055e-015
lhumerus -17.9526 -14.8552 57.6871
lradius 90.9429
lwrist -8.36363
lhand -20.8431 7.46686
lfingers 7.12502
lthumb 5.5258 37.3748
rfemur -7.08639 6.31974 14.6356
rtibia 21.0504
rfoot -21.4989 -14.9265
rtoes -10.9742
lfemur -30.5464 -12.9302 2.9038
ltibia 14.5097
lfoot 2.0458 29.1019
ltoes 14.4626
2351
root -1.92506 15.5257 9.09049 11.9749 -13.7673 -0.630013
lowerback -0.255589 -2.02994 2.79504
upperback -5.75284 -2.67915 -0.377692
thorax -5.97166 -1.4944 -1.81815
lowerneck -8.27647 8.09009 13.3571
upperneck 25.1904 10.9153 -7.78496
head 10.6254 5.46013 -3.68104
rclavicle -6.20387e-015 5.96354e-016
rhumerus -10.8172 17.3864 -63.9194
rradius 115.814
rwrist -8.07442
rhand -25.6937 -0.888013
rfingers 7.12502
rthumb 0.841571 -30.8661
lclavicle -6.20387e-015 5.96354e-016
lhumerus -19.518 -14.4974 57.5266
lradius 90.8343
lwrist -8.38982
lhand -20.6086 7.4794
lfingers 7.12502
lthumb 5.7522 37.3813
rfemur -7.33101 6.27404 15.1038
rtibia 21.1753
rfoot -21.4482 -15.2385
rtoes -10.3188
lfemur -30.7199 -15.1385 4.26921
ltibia 13.7891
lfoot 0.812043 31.2373
ltoes 17.0292
2352
root -1.99881 15.5414 9.01258 12.0181 -13.2285 -0.598477
lowerback -0.376691 -2.01611 2.92643
upperback -5.7877 -2.66199 -0.424112
thorax -5.94784 -1.49413 -1.9444
lowerneck -8.3003 7.96435 13.18
upperneck 25.2565 10.7436 -7.67873
head 10.6143 5.37668 -3.63883
rclavicle -5.0315e-014 -1.17283e-014
rhumerus -12.4736 17.0049 -63.8991
rradius 114.766
rwrist -8.80059
rhand -25.547 -1.16689
rfingers 7.12502
rthumb 0.98329 -31.1444
lclavicle -5.0315e-014 -1.17283e-014
lhumerus -21.1172 -14.135 57.4642
lradius 90.7105
lwrist -8.32495
lhand -20.3503 7.4958
lfingers 7.12502
lthumb 6.00166 37.3908
rfemur -7.56161 6.2363 15.5289
rtibia 21.3171
rfoot -21.4037 -15.5545
rtoes -9.67836
lfemur -30.9728 -17.0464 5.41033
ltibia 13.3904
lfoot -0.504739 32.7801
ltoes 19.1664
2353
root -2.06904 15.5574 8.93773 12.033 -12.6993 -0.536633
lowerback -0.483293 -2.00342 3.01767
upperback -5.81481 -2.64722 -0.469438
thorax -5.92198 -1.4928 -2.04661
lowerneck -8.34276 7.84325 13.001
upperneck 25.3389 10.5732 -7.55608
head 10.6127 5.2949 -3.58937
rclavicle -3.48494e-015 6.75868e-015
rhumerus -14.1265 16.6638 -63.9056
rradius 113.675
rwrist -9.59453
rhand -25.3892 -1.4705
rfingers 7.12502
rthumb 1.13567 -31.4472
lclavicle -3.48494e-015 6.75868e-015
lhumerus -22.7286 -13.757 57.4913
lradius 90.5677
lwrist -8.17317
lhand -20.1161 7.50495
lfingers 7.12502
lthumb 6.22772 37.3934
rfemur -7.77172 6.20162 15.9032
rtibia 21.4623
rfoot -21.3553 -15.8687
rtoes -9.06342
lfemur -31.2167 -18.3562 6.13438
ltibia 13.2915
lfoot -1.42958 33.5401
ltoes 20.4922
2354
root -2.13561 15.5736 8.86545 12.0232 -12.1918 -0.451297
lowerback -0.5722 -2.00142 3.06128
upperback -5.82279 -2.64743 -0.508764
thorax -5.88397 -1.49582 -2.115
lowerneck -8.43557 7.74153 12.8508
upperneck 25.4386 10.4229 -7.44449
head 10.6329 5.22252 -3.54388
rclavicle 1.70691e-014 8.15017e-015
rhumerus -15.7389 16.3794 -63.9586
rradius 112.543
rwrist -10.4392
rhand -25.2429 -1.78038
rfingers 7.12502
rthumb 1.27701 -31.7563
lclavicle 1.70691e-014 8.15017e-015
lhumerus -24.3508 -13.3132 57.5814
lradius 90.4116
lwrist -7.93074
lhand -19.9119 7.51393
lfingers 7.12502
lthumb 6.42491 37.3965
rfemur -7.9657 6.16788 16.2302
rtibia 21.6058
rfoot -21.2892 -16.1707
rtoes -8.51942
lfemur -31.3653 -18.9088 6.34349
ltibia 13.4349
lfoot -1.6798 33.519
ltoes 20.9216
2355
root -2.19848 15.5901 8.79572 11.9909 -11.7054 -0.344146
lowerback -0.645191 -1.9922 3.07771
upperback -5.81909 -2.63829 -0.550098
thorax -5.8407 -1.49256 -2.17045
lowerneck -8.56245 7.64073 12.6932
upperneck 25.5495 10.2668 -7.3141
head 10.6624 5.14805 -3.48996
rclavicle -8.25842e-014 6.16232e-015
rhumerus -17.3546 16.1043 -64.0467
rradius 111.39
rwrist -11.3316
rhand -25.0677 -2.0892
rfingers 7.12502
rthumb 1.44621 -32.064
lclavicle -8.25842e-014 6.16232e-015
lhumerus -25.9687 -12.8384 57.7526
lradius 90.2268
lwrist -7.65442
lhand -19.7652 7.50491
lfingers 7.12502
lthumb 6.56654 37.3831
rfemur -8.14369 6.11448 16.5097
rtibia 21.7485
rfoot -21.2186 -16.4398
rtoes -8.025
lfemur -31.3693 -18.7154 6.03464
ltibia 13.7536
lfoot -1.25641 32.8451
ltoes 20.4875
2356
root -2.25788 15.6062 8.72811 11.9359 -11.2411 -0.215633
lowerback -0.697443 -1.97264 3.06499
upperback -5.80619 -2.61546 -0.593555
thorax -5.79716 -1.48087 -2.21193
lowerneck -8.71833 7.53756 12.5267
upperneck 25.6708 10.1024 -7.16845
head 10.6996 5.06994 -3.42927
rclavicle -2.53839e-015 -1.03368e-014
rhumerus -18.9822 15.8212 -64.1679
rradius 110.216
rwrist -12.2396
rhand -24.8527 -2.3985
rfingers 7.12502
rthumb 1.65381 -32.3718
lclavicle -2.53839e-015 -1.03368e-014
lhumerus -27.5743 -12.3482 58.0008
lradius 90.0031
lwrist -7.38773
lhand -19.6952 7.49694
lfingers 7.12502
lthumb 6.63406 37.373
rfemur -8.3103 6.03716 16.7434
rtibia 21.9
rfoot -21.1493 -16.6762
rtoes -7.57793
lfemur -31.2263 -17.9494 5.31092
ltibia 14.1872
lfoot -0.33376 31.7054
ltoes 19.4715
2357
root -2.314 15.6213 8.66246 11.8625 -10.7905 -0.0750282
lowerback -0.728111 -1.94498 3.03205
upperback -5.78612 -2.58147 -0.635228
thorax -5.75644 -1.46244 -2.24013
lowerneck -8.89733 7.43141 12.3483
upperneck 25.7973 9.93053 -7.01055
head 10.7416 4.98827 -3.36248
rclavicle -2.43201e-015 -5.1684e-015
rhumerus -20.6243 15.5254 -64.3193
rradius 109.022
rwrist -13.1357
rhand -24.7039 -2.66204
rfingers 7.12502
rthumb 1.79754 -32.6342
lclavicle -2.43201e-015 -5.1684e-015
lhumerus -29.1459 -11.8486 58.3146
lradius 89.7139
lwrist -7.18341
lhand -19.7062 7.47789
lfingers 7.12502
lthumb 6.62342 37.3543
rfemur -8.46625 5.94071 16.9431
rtibia 22.0664
rfoot -21.0958 -16.8877
rtoes -7.14079
lfemur -30.9726 -16.8434 4.32736
ltibia 14.7014
lfoot 0.795012 30.2709
ltoes 18.0153
2358
root -2.36727 15.6346 8.59851 11.7712 -10.3513 0.0728179
lowerback -0.729793 -1.90488 2.9809
upperback -5.77756 -2.53005 -0.672122
thorax -5.7422 -1.43476 -2.25271
lowerneck -9.03141 7.30347 12.171
upperneck 25.9142 9.73845 -6.87459
head 10.7709 4.89646 -3.30822
rclavicle -1.71941e-014 1.15295e-014
rhumerus -22.3163 15.2186 -64.4953
rradius 107.801
rwrist -13.9666
rhand -24.5821 -2.90255
rfingers 7.12502
rthumb 1.91519 -32.8737
lclavicle -1.71941e-014 1.15295e-014
lhumerus -30.6942 -11.3781 58.6989
lradius 89.3544
lwrist -7.07131
lhand -19.7689 7.5033
lfingers 7.12502
lthumb 6.56294 37.3816
rfemur -8.61645 5.83201 17.1176
rtibia 22.2616
rfoot -21.0703 -17.0826
rtoes -6.69766
lfemur -30.6413 -15.5882 3.21431
ltibia 15.2695
lfoot 1.89297 28.6781
ltoes 16.2503
